# xmcd
#
# Track frame offsets:
#	150
#	19695
#	35579
#	46874
#	64021
#	77699
#
# Disc length: 1237 seconds
#
# Revision: 1
# Processed by: cddbd v1.5.2PL0 Copyright (c) Steve Scherf et al.
# Submitted via: audiograbber 1.83.01
#
DISCID=4004d306
DTITLE=Aoife O'Donovan - In The Magic Hour Acoustic UP
DYEAR=2016
DGENRE=
TTITLE0=Magic Hour
TTITLE1=The King of All Birds
TTITLE2=Stanley Park
TTITLE3=Nebraska
TTITLE4=Porch Light
TTITLE5=You Turn Me On, I'm a Radio
EXTD=
EXTT0=
EXTT1=
EXTT2=
EXTT3=
EXTT4=
EXTT5=
PLAYORDER=
